<?xml version="1.0" encoding="UTF-8" standalone="no"?>
<svg
   version="1.1"
   id="Layer_1"
   x="0px"
   y="0px"
   viewBox="0 0 128 128"
   xml:space="preserve"
   sodipodi:docname="restic-icon.svg"
   inkscape:version="1.4.2 (ebf0e940, 2025-05-08)"
   width="128"
   height="128"
   xmlns:inkscape="http://www.inkscape.org/namespaces/inkscape"
   xmlns:sodipodi="http://sodipodi.sourceforge.net/DTD/sodipodi-0.dtd"
   xmlns:xlink="http://www.w3.org/1999/xlink"
   xmlns="http://www.w3.org/2000/svg"
   xmlns:svg="http://www.w3.org/2000/svg"><defs
     id="defs1"><linearGradient
       id="linearGradient16"
       inkscape:collect="always"><stop
         style="stop-color:#1372bf;stop-opacity:1;"
         offset="0"
         id="stop16" /><stop
         style="stop-color:#389beb;stop-opacity:1;"
         offset="1"
         id="stop17" /></linearGradient><linearGradient
       inkscape:collect="always"
       xlink:href="#linearGradient16"
       id="linearGradient17"
       x1="-0.012377007"
       y1="61.439999"
       x2="106.44724"
       y2="61.439999"
       gradientUnits="userSpaceOnUse" /><linearGradient
       inkscape:collect="always"
       xlink:href="#linearGradient16"
       id="linearGradient18"
       gradientUnits="userSpaceOnUse"
       x1="-0.012377007"
       y1="61.439999"
       x2="106.44724"
       y2="61.439999" /></defs><sodipodi:namedview
     id="namedview1"
     pagecolor="#ffffff"
     bordercolor="#000000"
     borderopacity="0.25"
     inkscape:showpageshadow="2"
     inkscape:pageopacity="0.0"
     inkscape:pagecheckerboard="0"
     inkscape:deskcolor="#d1d1d1"
     inkscape:zoom="2.8361319"
     inkscape:cx="-19.040017"
     inkscape:cy="43.721521"
     inkscape:window-width="2560"
     inkscape:window-height="1387"
     inkscape:window-x="1800"
     inkscape:window-y="25"
     inkscape:window-maximized="1"
     inkscape:current-layer="Layer_1" /><style
     type="text/css"
     id="style1"><![CDATA[
	.st0{fill-rule:evenodd;clip-rule:evenodd;}
]]></style><path
     id="path5"
     style="fill:#ffd242;fill-opacity:1"
     d="m 37.821353,2.55957 c -10.6,0 -18.18906,8.729297 -19.28906,19.279297 l -6.74023,64.910156 c -0.59,5.68 -1.05954,9.48125 -1.01954,15.281247 0.02,2.51 0.09969,5.00985 0.17969,7.33985 0.15,4.67 -0.0493,8.2189 3.7207,12.1289 2.35,2.43 5.62024,3.94141 9.24024,3.94141 h 79.798827 c 6.7,0 12.24078,-5.2 12.80078,-11.75 0.01,-0.05 0.0291,-0.11016 0.0391,-0.16016 0.61,-2.85 0.77086,-6.15 0.63086,-10 -0.08,-2.32 -0.27102,-4.821247 -0.54102,-7.531247 -0.39,-3.97 -0.89961,-7.959687 -1.34961,-11.929687 l -7.01956,-62.230469 c -1.18,-10.53 -8.671253,-19.279297 -19.281253,-19.279297 z" /><g
     id="g1"
     style="fill:url(#linearGradient17)"
     transform="translate(10.782566,2.56)"><path
       class="st0"
       d="m 27.04,0 h 51.17 c 10.61,0 18.1,8.75 19.28,19.28 l 7.02,62.23 c 0.45,3.97 0.96,7.96 1.35,11.93 0.27,2.71 0.46,5.21 0.54,7.53 0.14,3.85 -0.02,7.15 -0.63,10 -0.01,0.05 -0.03,0.11 -0.04,0.16 -0.56,6.55 -6.1,11.75 -12.8,11.75 h -79.8 c -3.62,0 -6.89,-1.51 -9.24,-3.94 -3.77,-3.91 -3.57,-7.46 -3.72,-12.13 -0.08,-2.33 -0.16,-4.83 -0.18,-7.34 -0.04,-5.8 0.43,-9.6 1.02,-15.28 L 7.75,19.28 C 8.85,8.73 16.44,0 27.04,0 Z m 75.91,102.41 c 0,-0.74 -0.02,-1.51 -0.05,-2.3 -0.13,-3.45 -0.51,-6.46 -1.04,-11.02 -0.87,-0.34 -1.81,-0.52 -2.79,-0.52 H 7.46 c -1.23,0 -2.39,0.29 -3.42,0.8 -0.56,3.9 -0.56,7.77 -0.45,12.36 2.33,-3.32 6.18,-4.53 10.52,-4.53 h 77.87 c 4.49,0 8.64,1.39 10.97,5.21 z m -87.99,5.45 H 34.7 v 7.01 H 14.96 Z"
       id="path1"
       style="fill:url(#linearGradient18);fill-opacity:1"
       sodipodi:nodetypes="ssccccccsscccccscccssccsscccccc" /></g><path
     id="path10"
     style="fill:#ffd242;fill-opacity:1;stroke:none;stroke-width:1.20474;stroke-dasharray:none;paint-order:stroke fill markers"
     d="m 63.997917,18.287256 c -1.697967,0 -3.073797,0.793871 -3.076381,2.157624 -4.287608,0.795371 -7.404099,3.295591 -7.404097,7.088145 0,1.445031 0.453839,2.30583 1.251337,2.806157 -1.141935,0.48714 -1.749528,1.054321 -1.750212,1.633809 5.88e-4,1.666573 4.915486,3.017659 10.979353,3.018176 6.065488,1.13e-4 10.982921,-1.351158 10.983507,-3.018176 -0.003,-0.612057 -0.683032,-1.209397 -1.949761,-1.712797 0.921433,-0.519059 1.450888,-1.431427 1.450888,-2.993234 3e-6,-3.791763 -3.11685,-6.116509 -7.404098,-6.847024 4.32e-4,-0.0166 0,-0.03276 0,-0.04989 0,-1.366107 -1.380971,-2.082793 -3.080536,-2.082793 z M 51.90026,30.468057 c -8.200954,1.794736 -15.464559,5.588485 -19.826021,11.411707 -4.383732,3.104911 -6.988958,8.14336 -6.988362,13.515286 1.28e-4,8.984724 7.164898,16.330266 16.146827,16.55425 7.061309,5.00044 15.713444,8.850829 22.898245,8.850829 7.165173,0 17.025201,-3.704393 24.627667,-9.021278 8.129825,-1.192934 14.155304,-8.166919 14.155504,-16.383801 0.001,-5.83701 -3.070977,-11.243471 -8.085888,-14.230335 -4.384071,-5.080022 -11.047978,-8.54645 -18.504011,-10.376547 0.177498,0.30354 0.266664,0.612823 0.266066,0.922914 1.1e-4,2.484444 -5.637935,4.498428 -12.59237,4.498166 -6.952814,-5.58e-4 -12.588326,-2.014304 -12.588215,-4.498166 7.8e-5,-0.420496 0.165216,-0.838912 0.490558,-1.243025 z m -9.989921,10.530366 c 7.949828,0.0013 14.393461,6.446803 14.392469,14.396627 -0.0013,7.9482 -6.444269,14.391169 -14.392469,14.392468 -7.949825,9.96e-4 -14.395329,-6.442644 -14.396627,-14.392468 -0.001,-7.951448 6.445178,-14.397621 14.396627,-14.396627 z m 44.445376,0 c 7.949824,0.0013 14.393465,6.446803 14.392475,14.396627 -10e-4,7.9482 -6.444275,14.391169 -14.392475,14.392468 C 78.405891,69.788514 71.960393,63.344874 71.959088,55.39505 71.958094,47.443602 78.404266,40.997429 86.355715,40.998423 Z M 40.78372,51.570362 c -2.149539,-0.0012 -3.892379,1.741665 -3.891204,3.891204 0.0011,2.147916 1.743289,3.888223 3.891204,3.887048 2.146294,-0.0011 3.88592,-1.740754 3.887048,-3.887048 -0.0028,-0.390867 -0.06443,-0.779084 -0.182925,-1.151564 -0.326271,0.390941 -0.808655,0.617678 -1.317855,0.619434 -0.95307,5.57e-4 -1.725819,-0.772198 -1.725268,-1.725268 8.28e-4,-0.543812 0.258139,-1.055366 0.694265,-1.380214 -0.433046,-0.164578 -0.892015,-0.250455 -1.355269,-0.253592 z m 46.037609,0 c -2.149539,-0.0012 -3.89238,1.741665 -3.891205,3.891204 0.0011,2.147916 1.74329,3.888223 3.891205,3.887048 2.146293,-0.0011 3.885926,-1.740754 3.887048,-3.887048 -0.0028,-0.390867 -0.06443,-0.779084 -0.182925,-1.151564 -0.326271,0.390941 -0.808654,0.617678 -1.317854,0.619434 -0.953069,5.57e-4 -1.725825,-0.772198 -1.725267,-1.725268 8.22e-4,-0.543812 0.258139,-1.055366 0.694264,-1.380214 -0.433047,-0.164578 -0.892014,-0.250457 -1.35527,-0.253592 z m -22.823412,0.428199 c 1.949807,-3.37e-4 3.53049,0.86727 3.529522,1.937287 9.68e-4,1.070017 -1.579715,1.937624 -3.529522,1.937287 -1.948184,-9.23e-4 -3.526334,-0.868162 -3.525365,-1.937287 -9.69e-4,-1.069125 1.577181,-1.936364 3.525365,-1.937287 z m -2.831101,6.75972 c 0.297008,0.133246 0.623944,0.245014 0.972801,0.332582 -0.0085,0.111769 -0.01256,0.224216 -0.01256,0.336739 0.03452,2.414546 0.721723,2.205247 1.662908,2.207509 v -2.515147 h 0.419886 v 2.48189 c 0.927295,0.04315 1.598997,-0.05128 1.662908,-2.174251 1.89e-4,-0.112514 -0.004,-0.224966 -0.01256,-0.336739 0.348857,-0.08757 0.675793,-0.199337 0.972801,-0.332583 0.09274,0.435483 0.140397,0.889758 0.141355,1.346955 1.94e-4,2.468465 -1.332631,4.469566 -2.976604,4.469066 -1.642351,-0.003 -2.972645,-2.003037 -2.97245,-4.469066 9.48e-4,-0.457197 0.04862,-0.911472 0.141356,-1.346955 z"
     sodipodi:nodetypes="scscccccscssccccsccccccccccccccccccccccccccccccccccccccccccccccccccccccc" /></svg>
