<?xml version="1.0" encoding="UTF-8" standalone="no"?>
<svg
   version="1.1"
   id="Layer_1"
   x="0px"
   y="0px"
   viewBox="0 0 128 128"
   xml:space="preserve"
   sodipodi:docname="restic-icon.svg"
   inkscape:version="1.4.2 (ebf0e940, 2025-05-08)"
   width="128"
   height="128"
   inkscape:export-filename="restic-icon.png"
   inkscape:export-xdpi="48"
   inkscape:export-ydpi="48"
   xmlns:inkscape="http://www.inkscape.org/namespaces/inkscape"
   xmlns:sodipodi="http://sodipodi.sourceforge.net/DTD/sodipodi-0.dtd"
   xmlns="http://www.w3.org/2000/svg"
   xmlns:svg="http://www.w3.org/2000/svg"><defs
     id="defs1" /><sodipodi:namedview
     id="namedview1"
     pagecolor="#ffffff"
     bordercolor="#000000"
     borderopacity="0.25"
     inkscape:showpageshadow="2"
     inkscape:pageopacity="0.0"
     inkscape:pagecheckerboard="0"
     inkscape:deskcolor="#d1d1d1"
     inkscape:zoom="2.8361319"
     inkscape:cx="-19.040017"
     inkscape:cy="43.721521"
     inkscape:window-width="2560"
     inkscape:window-height="1387"
     inkscape:window-x="1800"
     inkscape:window-y="25"
     inkscape:window-maximized="1"
     inkscape:current-layer="Layer_1" /><style
     type="text/css"
     id="style1"><![CDATA[
	.st0{fill-rule:evenodd;clip-rule:evenodd;}
]]></style><path
     id="path1"
     style="fill:#f9f9f9;fill-opacity:1;stroke-width:0.834401"
     class="st0"
     d="M 42.158203 12.734375 C 33.313555 12.734375 26.980341 20.019338 26.0625 28.822266 L 20.4375 82.982422 C 19.945203 87.721818 19.554511 90.892897 19.587891 95.732422 C 19.604579 97.826768 19.669578 99.913271 19.736328 101.85742 C 19.861488 105.75407 19.696106 108.71602 22.841797 111.97852 C 24.802639 114.00612 27.53025 115.26562 30.550781 115.26562 L 97.136719 115.26562 C 102.7272 115.26563 107.34914 110.92627 107.81641 105.46094 C 107.82481 105.41924 107.84161 105.36983 107.84961 105.32812 C 108.35858 102.95009 108.49182 100.19682 108.375 96.984375 C 108.30825 95.048565 108.15107 92.962398 107.92578 90.701172 C 107.60036 87.388601 107.17431 84.058665 106.79883 80.746094 L 100.94141 28.822266 C 99.956817 20.036026 93.706508 12.734375 84.853516 12.734375 L 42.158203 12.734375 z M 63.998047 25.857422 C 65.416165 25.857422 66.568359 26.455823 66.568359 27.595703 C 66.568359 27.609993 66.568719 27.622869 66.568359 27.636719 C 70.145642 28.246261 72.746096 30.185759 72.746094 33.349609 C 72.746094 34.652782 72.304 35.414552 71.535156 35.847656 C 72.592115 36.267693 73.159609 36.766643 73.162109 37.277344 C 73.16162 38.668305 69.059095 39.795016 63.998047 39.794922 C 58.938352 39.794491 54.838382 38.667934 54.837891 37.277344 C 54.838462 36.793819 55.344043 36.320532 56.296875 35.914062 C 55.631442 35.496589 55.253906 34.778001 55.253906 33.572266 C 55.253904 30.407756 57.854058 28.321861 61.431641 27.658203 C 61.433797 26.520286 62.581262 25.857422 63.998047 25.857422 z M 53.904297 36.021484 C 53.632831 36.358676 53.494206 36.707732 53.494141 37.058594 C 53.494048 39.13113 58.196614 40.810081 63.998047 40.810547 C 69.800833 40.810766 74.505951 39.131616 74.505859 37.058594 C 74.506358 36.799854 74.431307 36.540383 74.283203 36.287109 C 80.504522 37.814143 86.064584 40.706539 89.722656 44.945312 C 93.907101 47.437554 96.471537 51.949906 96.470703 56.820312 C 96.470536 63.676485 91.441736 69.494849 84.658203 70.490234 C 78.3147 74.926647 70.088001 78.017578 64.109375 78.017578 C 58.114371 78.017578 50.895867 74.805183 45.003906 70.632812 C 37.509377 70.445921 31.529403 64.317173 31.529297 56.820312 C 31.528799 52.337973 33.703539 48.133709 37.361328 45.542969 C 41.000536 40.684068 47.061414 37.519013 53.904297 36.021484 z M 45.568359 44.806641 C 38.933664 44.805812 33.555807 50.185618 33.556641 56.820312 C 33.557724 63.453651 38.935019 68.830909 45.568359 68.830078 C 52.200343 68.828994 57.577025 63.452297 57.578125 56.820312 C 57.578953 50.186973 52.201701 44.807741 45.568359 44.806641 z M 82.654297 44.806641 C 76.019602 44.805812 70.639796 50.185619 70.640625 56.820312 C 70.641714 63.453651 76.020958 68.830909 82.654297 68.830078 C 89.286281 68.828994 94.661275 63.452296 94.662109 56.820312 C 94.662935 50.186973 89.287636 44.807741 82.654297 44.806641 z M 44.628906 53.628906 C 45.015445 53.631524 45.398432 53.70252 45.759766 53.839844 C 45.395862 54.110897 45.180379 54.53843 45.179688 54.992188 C 45.179227 55.78743 45.823898 56.432106 46.619141 56.431641 C 47.044018 56.430176 47.446509 56.240265 47.71875 55.914062 C 47.817623 56.224861 47.868794 56.54886 47.871094 56.875 C 47.870153 58.665869 46.419775 60.118223 44.628906 60.119141 C 42.836684 60.120121 41.381777 58.667223 41.380859 56.875 C 41.379879 55.081423 42.835329 53.627906 44.628906 53.628906 z M 83.042969 53.628906 C 83.429511 53.631522 83.812493 53.70252 84.173828 53.839844 C 83.809925 54.110897 83.594436 54.53843 83.59375 54.992188 C 83.593285 55.78743 84.237962 56.432106 85.033203 56.431641 C 85.45808 56.430176 85.860572 56.240265 86.132812 55.914062 C 86.231686 56.224861 86.282856 56.54886 86.285156 56.875 C 86.284219 58.665869 84.833837 60.118223 83.042969 60.119141 C 81.250747 60.120121 79.79584 58.667223 79.794922 56.875 C 79.793942 55.081423 81.249392 53.627906 83.042969 53.628906 z M 63.998047 53.986328 C 62.372481 53.987098 61.055832 54.709483 61.056641 55.601562 C 61.055832 56.493641 62.372481 57.217979 63.998047 57.21875 C 65.624967 57.219031 66.944167 56.494385 66.943359 55.601562 C 66.944167 54.708739 65.624967 53.986047 63.998047 53.986328 z M 61.636719 59.626953 C 61.559342 59.99032 61.518369 60.368514 61.517578 60.75 C 61.517415 62.807656 62.627669 64.476016 63.998047 64.478516 C 65.36978 64.478933 66.482584 62.809689 66.482422 60.75 C 66.481623 60.368514 66.440661 59.99032 66.363281 59.626953 C 66.115458 59.738133 65.84382 59.831227 65.552734 59.904297 C 65.559914 59.997561 65.562657 60.091667 65.5625 60.185547 C 65.509172 61.956954 64.949517 62.034057 64.175781 61.998047 L 64.175781 59.927734 L 63.824219 59.927734 L 63.824219 62.027344 C 63.038893 62.025456 62.4663 62.200246 62.4375 60.185547 C 62.4375 60.091657 62.440166 59.997557 62.447266 59.904297 C 62.156179 59.83123 61.884543 59.738133 61.636719 59.626953 z M 25.820312 86.636719 L 102.25977 86.636719 C 103.07748 86.636719 103.86196 86.786616 104.58789 87.070312 C 105.03012 90.875181 105.34661 93.386942 105.45508 96.265625 C 105.48008 96.924802 105.49609 97.56809 105.49609 98.185547 C 103.55194 94.998136 100.09021 93.837891 96.34375 93.837891 L 31.369141 93.837891 C 27.747842 93.837891 24.535951 94.846977 22.591797 97.617188 C 22.500013 93.787288 22.499533 90.558851 22.966797 87.304688 C 23.82623 86.879142 24.794 86.636719 25.820312 86.636719 z M 32.078125 102.73242 L 48.548828 102.73242 L 48.548828 108.58203 L 32.078125 108.58203 L 32.078125 102.73242 z " /></svg>
