<?xml version="1.0" encoding="UTF-8" standalone="no"?>
<svg
   version="1.1"
   id="Layer_1"
   x="0px"
   y="0px"
   viewBox="0 0 128 128"
   xml:space="preserve"
   sodipodi:docname="restic-icon.svg"
   inkscape:version="1.4.2 (ebf0e940, 2025-05-08)"
   width="128"
   height="128"
   inkscape:export-filename="prestic/icon-run.png"
   inkscape:export-xdpi="48"
   inkscape:export-ydpi="48"
   xmlns:inkscape="http://www.inkscape.org/namespaces/inkscape"
   xmlns:sodipodi="http://sodipodi.sourceforge.net/DTD/sodipodi-0.dtd"
   xmlns="http://www.w3.org/2000/svg"
   xmlns:svg="http://www.w3.org/2000/svg"><defs
     id="defs1" /><sodipodi:namedview
     id="namedview1"
     pagecolor="#ffffff"
     bordercolor="#000000"
     borderopacity="0.25"
     inkscape:showpageshadow="2"
     inkscape:pageopacity="0.0"
     inkscape:pagecheckerboard="0"
     inkscape:deskcolor="#d1d1d1"
     inkscape:zoom="2.8361319"
     inkscape:cx="-52.888937"
     inkscape:cy="-39.842999"
     inkscape:window-width="2560"
     inkscape:window-height="1387"
     inkscape:window-x="1800"
     inkscape:window-y="25"
     inkscape:window-maximized="1"
     inkscape:current-layer="Layer_1" /><style
     type="text/css"
     id="style1"><![CDATA[
	.st0{fill-rule:evenodd;clip-rule:evenodd;}
]]></style><path
     id="path1"
     style="fill:#f9f9f9;fill-opacity:1;stroke-width:0.834401"
     class="st0"
     d="m 38.632274,-154.39467 c -8.844648,0 -15.177862,7.28497 -16.095703,16.08789 l -5.625,54.160161 c -0.492297,4.739396 -0.882989,7.910475 -0.849609,12.75 0.01669,2.094346 0.08169,4.180849 0.148437,6.124998 0.12516,3.89665 -0.04022,6.8586 3.105469,10.1211 1.960842,2.0276 4.688453,3.2871 7.708984,3.2871 H 93.61079 c 5.590481,1e-5 10.21242,-4.33935 10.67969,-9.80468 0.008,-0.0417 0.0252,-0.09111 0.0332,-0.13282 0.50897,-2.37803 0.64221,-5.1313 0.52539,-8.343745 -0.0667,-1.93581 -0.22393,-4.021977 -0.44922,-6.283203 -0.32542,-3.312571 -0.75147,-6.642507 -1.12695,-9.955078 l -5.857419,-51.923833 c -0.984593,-8.78624 -7.234902,-16.08789 -16.087894,-16.08789 z m 21.839844,13.12305 c 1.418118,0 2.570312,0.5984 2.570312,1.73828 0,0.0143 3.6e-4,0.0272 0,0.041 3.577283,0.60954 6.177737,2.54904 6.177735,5.71289 0,1.30317 -0.442094,2.06494 -1.210938,2.49804 1.056959,0.42004 1.624453,0.91899 1.626953,1.42969 -4.89e-4,1.39096 -4.103014,2.51767 -9.164062,2.51758 -5.059695,-4.3e-4 -9.159665,-1.12699 -9.160156,-2.51758 5.71e-4,-0.48352 0.506152,-0.95681 1.458984,-1.36328 -0.665433,-0.41747 -1.042969,-1.13606 -1.042969,-2.3418 -2e-6,-3.16451 2.600152,-5.2504 6.177735,-5.91406 0.0022,-1.13792 1.149621,-1.80078 2.566406,-1.80078 z m -10.09375,10.16406 c -0.271466,0.33719 -0.410091,0.68625 -0.410156,1.03711 -9.3e-5,2.07254 4.702473,3.75149 10.503906,3.75196 5.802786,2.1e-4 10.507904,-1.67894 10.507812,-3.75196 4.99e-4,-0.25874 -0.07455,-0.51821 -0.222656,-0.77148 6.221319,1.52703 11.781381,4.41943 15.439453,8.6582 4.184445,2.49224 6.748881,7.00459 6.748047,11.875 -1.67e-4,6.85617 -5.028967,12.674538 -11.8125,13.669923 -6.343503,4.436413 -14.570202,7.527344 -20.548828,7.527344 -5.995004,0 -13.213508,-3.212395 -19.105469,-7.384766 -7.494529,-0.186891 -13.474503,-6.315641 -13.474609,-13.812501 -4.98e-4,-4.48234 2.174242,-8.6866 5.832031,-11.27734 3.639208,-4.8589 9.700086,-8.02396 16.542969,-9.52149 z m -8.335938,8.78516 c -6.634695,-8.3e-4 -12.012552,5.37898 -12.011718,12.01367 0.0011,6.63334 5.378378,12.010598 12.011718,12.009767 6.631984,-0.0011 12.008666,-5.377777 12.009766,-12.009767 8.28e-4,-6.63334 -5.376424,-12.01257 -12.009766,-12.01367 z m 37.085938,0 c -6.634695,-8.3e-4 -12.014501,5.37898 -12.013672,12.01367 0.0011,6.63334 5.380333,12.010598 12.013672,12.009767 6.631984,-0.0011 12.006978,-5.377787 12.007812,-12.009767 8.26e-4,-6.63334 -5.374473,-12.01257 -12.007812,-12.01367 z m -38.025391,8.82226 c 0.386539,0.003 0.769526,0.0736 1.13086,0.21094 -0.363904,0.27106 -0.579387,0.69859 -0.580078,1.15235 -4.61e-4,0.79524 0.64421,1.43991 1.439453,1.43945 0.424877,-0.001 0.827368,-0.19138 1.099609,-0.51758 0.09887,0.3108 0.150044,0.6348 0.152344,0.96094 -9.41e-4,1.79087 -1.451319,3.24322 -3.242188,3.24414 -1.792222,9.8e-4 -3.247129,-1.45192 -3.248047,-3.24414 -9.8e-4,-1.79358 1.45447,-3.2471 3.248047,-3.2461 z m 38.414063,0 c 0.386542,0.003 0.769524,0.0736 1.130859,0.21094 -0.363903,0.27106 -0.579392,0.69859 -0.580078,1.15235 -4.65e-4,0.79524 0.644212,1.43991 1.439453,1.43945 0.424877,-0.001 0.827369,-0.19138 1.099609,-0.51758 0.09887,0.3108 0.150044,0.6348 0.152344,0.96094 -9.37e-4,1.79087 -1.451319,3.24322 -3.242187,3.24414 -1.792222,9.8e-4 -3.247129,-1.45192 -3.248047,-3.24414 -9.8e-4,-1.79358 1.45447,-3.2471 3.248047,-3.2461 z m -19.044922,0.35743 c -1.625566,7.7e-4 -2.942215,0.72315 -2.941406,1.61523 -8.09e-4,0.89208 1.31584,1.61642 2.941406,1.61719 1.62692,2.8e-4 2.94612,-0.72437 2.945312,-1.61719 8.08e-4,-0.89282 -1.318392,-1.61551 -2.945312,-1.61523 z m -2.361328,5.64062 c -0.07738,0.36337 -0.11835,0.74156 -0.119141,1.12305 -1.63e-4,2.05765 1.110091,3.72601 2.480469,3.72851 1.371733,4.2e-4 2.484537,-1.66882 2.484375,-3.72851 -7.99e-4,-0.38149 -0.04176,-0.75968 -0.119141,-1.12305 -0.247823,0.11118 -0.519461,0.20428 -0.810547,0.27735 0.0072,0.0933 0.0099,0.18737 0.0098,0.28125 -0.05333,1.7714 -0.612983,1.84851 -1.386719,1.8125 v -2.07032 H 60.29829 v 2.09961 c -0.785326,-0.002 -1.357919,0.1729 -1.386719,-1.84179 0,-0.0939 0.0027,-0.18799 0.0098,-0.28125 -0.291087,-0.0731 -0.562723,-0.16617 -0.810547,-0.27735 z m -35.816407,27.009768 h 76.439458 c 0.81771,0 1.602189,0.149897 2.328119,0.433593 0.44223,3.804869 0.75872,6.31663 0.86719,9.195313 0.025,0.659177 0.041,1.302465 0.041,1.919922 -1.94415,-3.187411 -5.405879,-4.347656 -9.152339,-4.347656 H 27.843212 c -3.621299,0 -6.83319,1.009086 -8.777344,3.779297 -0.09178,-3.8299 -0.09226,-7.058337 0.375,-10.3125 0.859433,-0.425546 1.827203,-0.667969 2.853515,-0.667969 z m 6.257813,16.095701 h 16.470703 v 5.84961 H 28.552196 Z" /><path
     id="path18"
     style="fill:#b9f0ff;fill-opacity:1;stroke-width:0.834401"
     class="st0"
     d="m 42.158026,12.734377 c -8.844644,0 -15.177854,7.284963 -16.095704,16.087891 l -5.625,54.160156 c -0.49229,4.739398 -0.88299,7.910478 -0.84961,12.749998 0.0167,2.09435 0.08171,4.18085 0.14844,6.124998 0.12516,3.89665 -0.0402,6.8586 3.10547,10.1211 1.96084,2.0276 4.68844,3.28712 7.70898,3.2871 h 66.585939 c 5.590479,3e-5 10.212419,-4.33935 10.679689,-9.80468 0.008,-0.0417 0.0252,-0.0911 0.0332,-0.13282 0.50897,-2.37801 0.64221,-5.1313 0.52539,-8.343748 -0.0667,-1.93581 -0.22393,-4.02197 -0.44922,-6.2832 -0.32542,-3.31257 -0.75147,-6.642505 -1.12695,-9.955076 L 100.94123,28.822268 C 99.956636,20.036028 93.70633,12.734377 84.853338,12.734377 Z M 63.999823,27.150393 A 23.535578,23.535578 0 0 1 87.534979,50.685549 23.535578,23.535578 0 0 1 63.999823,74.220705 23.535578,23.535578 0 0 1 40.464662,50.685549 23.535578,23.535578 0 0 1 63.999823,27.150393 Z m -9.435547,8.429687 c -0.209181,3.8e-5 -0.372835,0.03296 -0.488282,0.09961 -2.46286,1.421932 -2.46286,30.175723 0,31.597656 2.462861,1.421933 27.363282,-12.954963 27.363282,-15.798828 0,-2.71056 -22.62165,-15.89921 -26.875,-15.898438 z M 25.820132,86.636721 h 76.439458 c 0.81771,0 1.60219,0.149899 2.32812,0.433593 0.44223,3.804868 0.75872,6.316628 0.86719,9.195308 0.025,0.65918 0.041,1.30247 0.041,1.91993 -1.94415,-3.18741 -5.40589,-4.34766 -9.152347,-4.34766 H 31.368962 c -3.6213,0 -6.83318,1.00908 -8.77734,3.7793 -0.0918,-3.8299 -0.0923,-7.05834 0.375,-10.3125 0.85943,-0.425548 1.82719,-0.667971 2.85351,-0.667971 z m 6.25782,16.095699 h 16.470699 v 5.84961 H 32.077952 Z" /></svg>
